<svg xmlns="http://www.w3.org/2000/svg" version="1.1" xmlns:xlink="http://www.w3.org/1999/xlink" xmlns:svgjs="http://svgjs.dev/svgjs" width="1500" height="1500" viewBox="0 0 1500 1500"><rect width="1500" height="1500" fill="#ffffff"></rect><g transform="matrix(0.6666666666666666,0,0,0.6666666666666666,250.00000000000017,187.66666666666674)"><svg viewBox="0 0 320 360" data-background-color="#ffffff" preserveAspectRatio="xMidYMid meet" height="1687" width="1500" xmlns="http://www.w3.org/2000/svg" xmlns:xlink="http://www.w3.org/1999/xlink"><g id="tight-bounds" transform="matrix(1,0,0,1,0,0)"><svg viewBox="0 0 320 360" height="360" width="320"><g><svg></svg></g><g><svg viewBox="0 0 320 360" height="360" width="320"><g><path d="M20.961 227.22l3.726 4.658-1.863-6.056c-0.466-2.795-3.726 0.466-1.863 1.398M25.153 224.425c1.397 2.329 2.795 4.658 2.795 6.987 0 3.261 2.795 4.658 5.123 5.589-3.261-3.726-5.124-13.974-7.918-12.576M204.017 26.929c7.918 0 15.371-0.932 23.756 0.931 20.495 5.124 37.729 15.371 49.374 29.811l32.606 52.169c1.397 13.042 4.192 27.482 3.726 43.319 3.261 0 2.795-4.658 6.521-5.59-3.726 9.316-5.59 20.961-6.521 34.469-2.329-7.453 0-18.632 0.466-24.687-3.261 5.124-5.124 1.397-5.124-0.932 0.466-3.726-1.397-3.261-2.795-4.658-5.124-4.658-8.384-9.782-12.11-17.7 2.329-6.055 2.795-14.905-4.658-19.563-2.329-1.397-5.124-3.726-6.521-7.453-1.863-5.124-5.124-11.179-4.193-19.097 0.466-2.329-6.987 5.124-11.179 1.863-18.166-12.576-36.332-27.016-58.224-39.127-11.645 0-20.029-4.192-24.221-9.316-3.726-4.658-0.932-10.713 4.658-11.179 3.261 0 6.987-0.932 9.782 0.932 0.466-1.863 2.329-4.192 4.657-4.192M157.904 16.215l0.932 0.466c4.658 0.932 6.987 7.453 12.11 5.124 0 3.261 0.466 6.521-0.466 8.85-1.397 3.726-5.59 3.726-8.85 3.726-31.208-1.863-49.374 11.179-68.471 22.358-5.124 3.261-10.713 5.59-14.906 9.782-20.029 18.632-41.921 35.866-47.045 70.335l-4.192 38.195c-0.466 4.192-5.124 8.384-4.192 13.508l3.26 22.824c-3.261-3.261-5.124 0.932-4.192 2.795 0.466 1.397 2.329 6.055 5.124 1.863 3.726 6.987 7.453 20.495 12.576 26.55 15.837 18.632 36.332 35.4 53.101 52.169 4.192-0.932 7.453-0.932 8.384-3.727 1.397 2.795-1.397 5.59-3.726 6.056 7.453 4.658 15.837 8.85 27.016 9.781 14.44 0.932 27.948 3.261 40.524 6.522 6.521-1.863 13.042-2.795 20.029-3.261 2.329 0 3.726-3.726 6.521-4.658l0.466-4.658c2.795 4.192 2.329-1.397 0.466-4.192 3.261 2.795 4.192 5.124 5.589 6.987 0-1.397 3.726-6.521 3.727-0.466l0.931-6.055c1.397-0.932 1.863 5.124 3.261 0.931 1.397-4.192 4.192-0.932 6.987-2.329-0.932 1.863-0.466 5.59 2.794 3.261l3.727-3.261c2.329 5.59 6.055 3.261 7.918 2.329 20.495-13.042 40.99-28.413 60.553-43.784l-0.466 6.055 2.329-7.453c2.329 2.329 4.192 0.466 5.124-0.931 2.795-4.658 6.521-9.316 12.577-13.508-7.453 20.029-16.303 35.866-27.482 48.908l-4.658 5.59c0 3.261-0.932 7.453-4.658 7.918-1.863 0.466-5.59-0.932-8.384 1.863-1.397 1.863 3.261 5.59-0.466 2.795-3.261-2.329-6.521 0-10.248 0.932-2.795 0.932 1.863 3.726 2.795 5.589 0.932 1.863 1.863 3.726 1.398 6.056l-5.124-5.59c-6.055 3.261-9.782 9.316-14.906 13.974-2.329 1.863-1.397 5.124-1.397 7.918-3.261 0-6.987-0.932-8.85 0.932-1.397 1.863-0.932 4.658-0.932 7.453-4.658-0.466-5.124-7.453-9.315-6.056-4.192 0.932-8.85 1.397-12.577 3.727 2.795 5.59-4.658 2.329-3.726 3.26-6.987-4.192-13.042-7.453-20.495-4.658-15.837-5.124-35.4-2.795-49.84-0.931 0-2.329 0.466-4.658-0.466-5.124-0.932 2.329-3.726 1.397-3.26 1.397-8.85-6.055-17.7-9.782-27.016-14.905-8.384 0.932-16.303-3.261-18.632-5.59-6.521-6.055-13.974-2.795-20.029-4.192-13.042-3.261-17.7-16.769-19.098-26.084-0.932-4.658-4.658-6.521-6.055-6.056-6.055-19.563-15.371-37.263-22.824-55.429-1.863-4.658-1.397-9.316-1.397-14.44 2.329 0.932 4.658 0.466 4.192-2.794-2.329-15.371-7.918-27.016-13.974-38.195 3.261-15.837 3.726-34.469 11.179-48.443 6.521-12.576 18.632-19.098 27.016-29.811 2.795-3.726 2.795-8.85 5.59-12.11 9.316-9.316 18.632-19.098 28.879-27.482 4.658-3.726 10.247 0 17.234-1.397 2.329-8.384 11.645-15.837 20.495-13.508 3.726 0.932 11.179-8.85 13.508-9.782 3.726-1.397 1.863 3.726 1.863 6.987 8.85-6.987 20.961-10.713 32.14-14.906" fill="#fce44d" fill-rule="nonzero" stroke="none" stroke-width="1" stroke-linecap="butt" stroke-linejoin="miter" stroke-miterlimit="10" stroke-dasharray="" stroke-dashoffset="0" font-family="none" font-weight="none" font-size="none" text-anchor="none" style="mix-blend-mode: normal" data-fill-palette-color="tertiary"></path></g><g transform="matrix(1,0,0,1,64,161.58602920125966)"><svg viewBox="0 0 192 36.827941597480674" height="36.827941597480674" width="192"><g><svg viewBox="0 0 192 36.827941597480674" height="36.827941597480674" width="192"><g><svg viewBox="0 0 192 36.827941597480674" height="36.827941597480674" width="192"><g><svg viewBox="0 0 192 36.827941597480674" height="36.827941597480674" width="192"><g id="textblocktransform"><svg viewBox="0 0 192 36.827941597480674" height="36.827941597480674" width="192" id="textblock"><g><svg viewBox="0 0 192 36.827941597480674" height="36.827941597480674" width="192"><g transform="matrix(1,0,0,1,0,0)"><svg width="192" viewBox="1 -32.8 174.64 33.5" height="36.827941597480674" data-palette-color="#fce44d"><path d="M17.85 0.7Q14.15-11.85 11.05-20.75L11.05-20.75 10.5-20.75Q10.4-17.75 10.05-11.3L10.05-11.3 9.75-5.3Q9.75-3.65 11.4-3.65L11.4-3.65Q12.4-3.65 12.9-3.75L12.9-3.75 13.25-3.4 12.7 0.2 10.85 0.15Q8.4 0 6.3 0L6.3 0Q5.25 0 3.43 0.15 1.6 0.3 1 0.4L1 0.4 1.35-3.35Q2.7-3.55 3.33-4.28 3.95-5 4.3-6.85L4.3-6.85Q4.7-10.3 5.45-17.9 6.2-25.5 6.2-26.2L6.2-26.2Q6.2-27.15 5.95-27.6 5.7-28.05 4.98-28.28 4.25-28.5 2.7-28.65L2.7-28.65 2.35-29 2.85-32.45 5.25-32.35Q7.95-32.2 9.55-32.2L9.55-32.2Q11.7-32.2 14.05-32.35L14.05-32.35 15.85-32.4Q17.4-26.45 19.5-19.3L19.5-19.3 21.1-13.55 21.6-13.55Q22.25-15.75 22.4-16.1L22.4-16.1Q22.95-17.95 24.5-22.98 26.05-28 27.3-32.25L27.3-32.25Q28.85-32.25 29.7-32.2L29.7-32.2 32.55-32.15Q33.95-32.15 34.6-32.2L34.6-32.2Q35.8-32.25 39.5-32.5L39.5-32.5 39.8-32.3 39.45-28.75Q37.35-28.6 36.63-28.05 35.9-27.5 35.9-26.1L35.9-26.1Q35.9-24.25 36.27-18.28 36.65-12.3 37.05-8.2L37.05-8.2Q37.3-5.55 37.8-4.63 38.3-3.7 39.45-3.7L39.45-3.7Q40.4-3.7 40.9-3.8L40.9-3.8 41.15-3.45 40.7 0.15Q37.85 0 35.45 0L35.45 0Q34 0 31.2 0.15 28.4 0.3 27.3 0.4L27.3 0.4 27.8-3.4Q29.2-3.55 29.83-4.13 30.45-4.7 30.45-5.85L30.45-5.85 30.25-10.55Q29.9-15.85 29.75-20.75L29.75-20.75 29.25-20.75Q25.75-10.9 22.4 0.25L22.4 0.25 17.85 0.7ZM57.5 0.6Q51.45 0.6 48.52-2.02 45.6-4.65 45.6-10.1L45.6-10.1 45.6-25.8Q45.6-27.4 45.3-27.95 45-28.5 44.05-28.5L44.05-28.5Q43.6-28.5 43.15-28.45 42.7-28.4 42.55-28.4L42.55-28.4 42.45-28.6 42.9-32.35Q43.65-32.3 45.9-32.25 48.15-32.2 50.75-32.2L50.75-32.2Q52-32.2 54.15-32.3 56.3-32.4 57-32.45L57-32.45 56.6-28.55Q55.15-28.4 54.6-27.83 54.05-27.25 53.95-26L53.95-26 53.65-11.45Q53.65-8.25 55-6.48 56.35-4.7 58.85-4.7L58.85-4.7Q61.4-4.7 62.65-6.08 63.9-7.45 63.9-10.3L63.9-10.3 63.8-25.8Q63.75-27.4 63.45-27.95 63.15-28.5 62.3-28.5L62.3-28.5Q61.85-28.5 61.42-28.45 61-28.4 60.85-28.4L60.85-28.4 60.75-28.6 61.2-32.35Q61.85-32.35 63.62-32.27 65.4-32.2 67.1-32.2L67.1-32.2Q68.85-32.2 70.92-32.3 73-32.4 73.6-32.45L73.6-32.45 73.25-28.6Q71.5-28.15 71.02-27.75 70.55-27.35 70.55-26.25L70.55-26.25 70.55-11.3Q70.55-5.5 67.2-2.45 63.85 0.6 57.5 0.6L57.5 0.6ZM90 0.55Q85.4 0.55 82.07-1.35 78.75-3.25 76.97-6.83 75.2-10.4 75.2-15.35L75.2-15.35Q75.2-20.75 77.3-24.68 79.4-28.6 83.32-30.7 87.25-32.8 92.7-32.8L92.7-32.8Q94.6-32.8 96.8-32.52 99-32.25 100.6-31.95 102.2-31.65 102.65-31.55L102.65-31.55 103-30.75Q102.9-30.4 102.65-29.05 102.4-27.7 102.1-25.48 101.8-23.25 101.65-20.75L101.65-20.75 95.55-20.4Q95.55-20.6 95.6-21.35 95.65-22.1 95.65-23.1L95.65-23.1Q95.65-25.2 94.55-26.15 93.45-27.1 91.05-27.1L91.05-27.1Q87.65-27.1 86.07-24.73 84.5-22.35 84.5-17.1L84.5-17.1Q84.5-11.2 86.25-8.15 88-5.1 91.35-5.1L91.35-5.1Q93.7-5.1 94.95-6.6 96.2-8.1 96.65-11.55L96.65-11.55 102.75-11.95Q102.6-11.05 102.27-7.95 101.95-4.85 101.9-2.05L101.9-2.05 101.35-1.35Q101.35-1.3 99.6-0.8 97.85-0.3 95.32 0.13 92.8 0.55 90 0.55L90 0.55ZM132.64-10.6L133.09-10Q132.19-5.25 131.69-0.3L131.69-0.3 131.09 0.35Q122.09 0 115.34 0L115.34 0Q110.79 0 105.89 0.5L105.89 0.5 106.29-3.4Q108.29-3.7 109.02-4.63 109.74-5.55 109.74-7.75L109.74-7.75 109.79-25.8Q109.79-27.4 109.49-27.95 109.19-28.5 108.29-28.5L108.29-28.5Q107.54-28.5 106.84-28.4L106.84-28.4 106.39-28.95 106.84-32.35 107.94-32.35Q115.89-32.2 117.04-32.2L117.04-32.2Q127.94-32.2 132.34-32.8L132.34-32.8 132.84-32.15Q132.44-30.2 132.12-27.5 131.79-24.8 131.69-22.7L131.69-22.7 126.19-22.35 126.29-24.25Q126.29-25.6 125.87-26.2 125.44-26.8 124.27-27.03 123.09-27.25 120.54-27.25L120.54-27.25Q119.09-27.25 118.69-27 118.29-26.75 118.29-25.75L118.29-25.75 117.94-18.85 122.39-18.8Q123.59-18.8 128.04-19.15L128.04-19.15 128.54-18.6 127.84-13.7Q122.89-13.85 121.54-13.85L121.54-13.85Q120.49-13.85 119.29-13.73 118.09-13.6 117.74-13.55L117.74-13.55 117.64-7.7Q117.64-6.3 117.84-5.7 118.04-5.1 118.62-4.9 119.19-4.7 120.54-4.7L120.54-4.7Q123.34-4.7 124.67-5.1 125.99-5.5 126.57-6.63 127.14-7.75 127.49-10.25L127.49-10.25 132.64-10.6ZM152.34 0.7Q148.64-11.85 145.54-20.75L145.54-20.75 144.99-20.75Q144.89-17.75 144.54-11.3L144.54-11.3 144.24-5.3Q144.24-3.65 145.89-3.65L145.89-3.65Q146.89-3.65 147.39-3.75L147.39-3.75 147.74-3.4 147.19 0.2 145.34 0.15Q142.89 0 140.79 0L140.79 0Q139.74 0 137.92 0.15 136.09 0.3 135.49 0.4L135.49 0.4 135.84-3.35Q137.19-3.55 137.81-4.28 138.44-5 138.79-6.85L138.79-6.85Q139.19-10.3 139.94-17.9 140.69-25.5 140.69-26.2L140.69-26.2Q140.69-27.15 140.44-27.6 140.19-28.05 139.47-28.28 138.74-28.5 137.19-28.65L137.19-28.65 136.84-29 137.34-32.45 139.74-32.35Q142.44-32.2 144.04-32.2L144.04-32.2Q146.19-32.2 148.54-32.35L148.54-32.35 150.34-32.4Q151.89-26.45 153.99-19.3L153.99-19.3 155.59-13.55 156.09-13.55Q156.74-15.75 156.89-16.1L156.89-16.1Q157.44-17.95 158.99-22.98 160.54-28 161.79-32.25L161.79-32.25Q163.34-32.25 164.19-32.2L164.19-32.2 167.04-32.15Q168.44-32.15 169.09-32.2L169.09-32.2Q170.29-32.25 173.99-32.5L173.99-32.5 174.29-32.3 173.94-28.75Q171.84-28.6 171.12-28.05 170.39-27.5 170.39-26.1L170.39-26.1Q170.39-24.25 170.77-18.28 171.14-12.3 171.54-8.2L171.54-8.2Q171.79-5.55 172.29-4.63 172.79-3.7 173.94-3.7L173.94-3.7Q174.89-3.7 175.39-3.8L175.39-3.8 175.64-3.45 175.19 0.15Q172.34 0 169.94 0L169.94 0Q168.49 0 165.69 0.15 162.89 0.3 161.79 0.4L161.79 0.4 162.29-3.4Q163.69-3.55 164.31-4.13 164.94-4.7 164.94-5.85L164.94-5.85 164.74-10.55Q164.39-15.85 164.24-20.75L164.24-20.75 163.74-20.75Q160.24-10.9 156.89 0.25L156.89 0.25 152.34 0.7Z" opacity="1" transform="matrix(1,0,0,1,0,0)" fill="#fce44d" class="wordmark-text-0" data-fill-palette-color="primary" id="text-0"></path></svg></g></svg></g></svg></g></svg></g><g></g></svg></g></svg></g></svg></g></svg></g><defs></defs></svg><rect width="320" height="360" fill="none" stroke="none" visibility="hidden"></rect></g></svg></g></svg>